<?xml version="1.0" encoding="utf-8"?>
<!-- Generator: Adobe Illustrator 25.2.1, SVG Export Plug-In . SVG Version: 6.00 Build 0)  -->
<svg version="1.1" xmlns="http://www.w3.org/2000/svg" xmlns:xlink="http://www.w3.org/1999/xlink" x="0px" y="0px"
	 viewBox="0 0 24 24" style="enable-background:new 0 0 24 24;" xml:space="preserve">
<g>
	<path d="M16.7,17c0,0.5-0.3,0.9-0.7,0.9c-0.4,0-0.8-0.4-0.8-0.9l0-0.5c0,0,0.3-0.5,0.7-0.5C16.4,16,16.7,16.5,16.7,17 M22,11.3v9.3
		c0,0.7-0.6,1.3-1.3,1.3h-9.3c-0.7,0-1.3-0.6-1.3-1.3v-9.3c0-0.7,0.6-1.3,1.3-1.3h9.3C21.4,10,22,10.6,22,11.3 M17.7,16.9
		c0-1.3-0.9-1.7-1.3-1.7c-0.7,0-1.1,0.4-1.1,0.4s0-1.4,1.7-1.3v-0.8c0,0-2.7-0.3-2.7,2.9c0,2.8,2.3,2.2,2.3,2.2S17.7,18.3,17.7,16.9
		z"/>
	<path d="M16.7,6H7.4C6.6,6,6,6.6,6,7.3v9.3C6,17.4,6.6,18,7.4,18H9v-1.3H7.4V7.3h9.3v1.6H18V7.3C18,6.6,17.4,6,16.7,6z"/>
	<path d="M12.7,2H3.4C2.6,2,2,2.6,2,3.3v9.3C2,13.4,2.6,14,3.4,14H5v-1.3H3.4V3.3h9.3V5H14V3.3C14,2.6,13.4,2,12.7,2z"/>
</g>
</svg>
