<?xml version="1.0" encoding="utf-8"?>
<!-- Generator: Adobe Illustrator 25.2.1, SVG Export Plug-In . SVG Version: 6.00 Build 0)  -->
<svg version="1.1" xmlns="http://www.w3.org/2000/svg" xmlns:xlink="http://www.w3.org/1999/xlink" x="0px" y="0px"
	 viewBox="0 0 24 24" style="enable-background:new 0 0 24 24;" xml:space="preserve">
<path class="st2" d="M9.2,2L8.5,2.1l0.6,3.3l0.7-0.1L9.2,2z M12.9,2.7c-0.3,0.3-0.4,0.6-0.3,0.9c0,0.3,0.2,0.6,0.5,0.9
	c0.5,0.5,1.3,1,2,1.5L15,6.6l-0.2,0l-0.3,0.1l0,0L8.9,8C8.8,8.2,8.7,8.5,8.8,8.8c0,0.3,0.2,0.6,0.3,0.7L14,8.5L14.2,9l-4.4,2.9
	c0,0.2,0,0.4,0.1,0.6c0,0,0,0,0,0.1c0,0.1,0.1,0.1,0.1,0.2c0.2,0.2,0.4,0.4,0.6,0.5l4.6-3.1l0.4,0.5L12.1,15
	c0.1,0.2,0.2,0.4,0.5,0.6c0.2,0.2,0.5,0.3,0.8,0.3l3.5-4.2l0.5,0.3l-1.8,4.4c0.1,0.2,0.4,0.3,0.6,0.4c0.3,0.1,0.6,0.1,0.9,0
	l2.4-5.8l0,0c0.3-0.8,1.2-1.3,2.4-1.6c0.1,0,0.1,0,0.2-0.1V3.6c-1.1,0.9-2.3,1.6-3.5,2.1h0c0.2,0.2,0.5,0.4,0.7,0.6
	c0.4,0.5,0.7,1.1,0.6,1.7L19.1,8c0.1-0.4-0.1-0.8-0.4-1.2s-0.9-0.8-1.5-1.2C15.9,4.7,14.3,3.9,12.9,2.7z M4.5,4.1L4,4.6l2.6,2.3
	l0.4-0.5L4.5,4.1L4.5,4.1z M2.6,8.7l0,0.7l2.9,0.1l0-0.7L2.6,8.7L2.6,8.7z M6.5,11c-0.6,0-1.2,0.5-1.2,1.2c0,0.3,0.1,0.5,0.2,0.7
	l-2.2,6.8c-0.6,0.2-1,0.8-0.8,1.4s0.8,1,1.4,0.8c0.6-0.2,1-0.8,0.8-1.4c0-0.2-0.1-0.3-0.2-0.4l2.2-6.8c0.6-0.2,1-0.8,0.9-1.4
	C7.5,11.4,7,11,6.5,11L6.5,11z M2,12.7v2.2l0.6,0.2c0.2,0.1,0.3,0.3,0.2,0.4c-0.1,0.2-0.3,0.3-0.4,0.2c0,0,0,0,0,0l0,0L2,15.6v2.2
	l1,0.3l1.5-4.6L2,12.7z M6.8,15.3l-1,2.9l0.6,0.2l1-2.9L6.8,15.3z M8.1,15.7l-1,2.9l0.6,0.2l1-2.9L8.1,15.7z M9.3,16.1l-1,2.9
	l0.6,0.2l1-2.9L9.3,16.1z M10.5,16.5l-1,2.9l0.6,0.2l1-2.9L10.5,16.5z M11.8,16.9l-1,2.9l0.6,0.2l1-2.9L11.8,16.9z M13,17.3l-1,2.9
	l0.6,0.2l1-2.9L13,17.3z M14.2,17.7l-1,2.9l0.6,0.2l1-2.9L14.2,17.7z M15.6,17.8l-1.2,3.8c1,0.4,2.2-0.1,2.5-1.2
	c0.4-1-0.1-2.2-1.2-2.5c0,0,0,0,0,0C15.7,17.8,15.6,17.8,15.6,17.8L15.6,17.8z"/>
</svg>
