<?xml version="1.0" encoding="utf-8"?>
<!-- Generator: Adobe Illustrator 25.2.1, SVG Export Plug-In . SVG Version: 6.00 Build 0)  -->
<svg version="1.1" xmlns="http://www.w3.org/2000/svg" xmlns:xlink="http://www.w3.org/1999/xlink" x="0px" y="0px"
	 viewBox="0 0 24 24" style="enable-background:new 0 0 24 24;" xml:space="preserve">
<g>
	<g class="l0">
		<path d="M21.4,19.4c-1-1-2-2-3-3c0,0-0.1-0.1-0.2-0.1l0.2-0.2c0.5-0.5,1-1,1.5-1.5c0.3-0.3,0.3-0.6,0-0.9c-1.2-1.2-3-1.5-4.5-0.8
			c-0.3,0.1-0.5,0.3-0.8,0.4c0,0-0.1-0.1-0.1-0.1c-0.6-0.5-1.1-1.1-1.7-1.6v1.6c0.3,0.3,0.6,0.5,0.8,0.8c0,0,0.1,0.1,0.1,0.1
			c-0.5,0.7-0.8,1.5-0.8,2.3c0,1.2,0.4,2.2,1.2,3c0.2,0.2,0.5,0.2,0.7,0.1c0,0,0.1,0,0.1-0.1c0,0.1,0,0.2,0,0.2c0.2,1,0.8,1.7,1.7,2
			c0.3,0.1,0.5,0.2,0.8,0.2h0.7c0.2,0,0.4-0.1,0.6-0.1c0.4-0.2,0.8-0.4,1.1-0.7c0.1,0.1,0.2,0.2,0.2,0.2c0.7,0.6,1.6,0.3,1.9-0.5
			c0,0,0-0.1,0.1-0.1v-0.4C21.9,19.9,21.6,19.6,21.4,19.4z M16.5,20.3c-0.7-0.7-0.7-1.8,0-2.4c0.8,0.8,1.6,1.6,2.5,2.5
			C18.2,21,17.2,21,16.5,20.3z M2.9,2.1C2.7,1.9,2.4,2,2.2,2.2C2,2.4,1.9,2.7,2.1,2.9C2.2,3,2.3,3.1,2.3,3.2
			c2.4,2.4,4.9,4.8,7.3,7.1c0.2-0.1,0.5-0.2,0.7-0.3c0.2-0.1,0.3-0.1,0.5-0.2c-2.6-2.5-5.2-5-7.8-7.5C3,2.2,3,2.2,2.9,2.1z"/>
		<path d="M2.6,20.1c-0.1-0.1-0.2-0.3-0.3-0.4c0,0,0,0,0,0c-0.4,0.5-0.4,1.2,0.1,1.6c0.4,0.4,1,0.5,1.5,0.1
			C3.4,21,2.9,20.6,2.6,20.1z"/>
		<path d="M22,2.7c-0.1,0.2-0.2,0.3-0.4,0.5c-2.6,2.5-5.2,5-7.7,7.5c-0.1,0.1-0.1,0.1-0.2,0.2c-0.3-0.3-0.6-0.6-0.8-0.9
			c0,0,0.1,0,0.1-0.1c2.6-2.6,5.3-5.1,7.9-7.7c0.2-0.2,0.5-0.4,0.7-0.2c0.1,0.1,0.2,0.2,0.4,0.4C22,2.5,22,2.6,22,2.7z"/>
	</g>
	<path class="l1" d="M7,22c-0.1,0-0.2,0-0.4,0c0,0,0,0,0,0c-0.3,0-0.5-0.2-0.8-0.3c-0.3-0.2-0.7-0.5-1-0.7c-0.6-0.4-1-0.8-1.5-1.4
		c-1-1.3-1.4-2.7-1.4-4.3c0-1.2,0-2.5,0-3.7c0-0.1,0-0.2,0-0.2c0.1-0.4,0.4-0.7,0.9-0.4c0.8,0.4,1.6,0.7,2.5,0.9
		c0.8,0.1,1.7,0.2,2.6,0c1-0.1,2-0.4,2.9-0.9c0.3-0.1,0.5-0.1,0.7,0.2c0.1,0.2,0.2,0.3,0.2,0.5c0,1.2,0,2.5,0,3.7
		c0,0.8-0.1,1.6-0.4,2.3c-0.4,1.2-1.1,2.3-2.1,3.1c-0.5,0.4-1,0.7-1.5,1.1c-0.2,0.1-0.4,0.2-0.5,0.2C7.1,22,7.1,22,7,22z M6.8,19.7
		c1,0,1.9-0.8,1.9-1.9c0-0.2-0.1-0.3-0.3-0.2c-1.1,0.6-2.2,0.5-3.2,0c-0.2-0.1-0.3,0-0.3,0.2C4.9,18.8,5.8,19.7,6.8,19.7z M10.3,15
		c0-0.7-0.6-1.3-1.3-1.3c-0.8,0-1.3,0.7-1.3,1.4c0,0.2,0.1,0.3,0.3,0.2c0.7-0.4,1.3-0.4,2,0C10.2,15.4,10.3,15.3,10.3,15
		C10.3,15.1,10.3,15,10.3,15z M4.7,13.7c-0.8,0-1.4,0.6-1.3,1.4c0,0.1,0,0.2,0.1,0.2c0.1,0,0.2,0,0.2,0c0.7-0.4,1.3-0.4,2,0
		c0.2,0.1,0.3,0,0.3-0.2C6,14.3,5.4,13.7,4.7,13.7z"/>
</g>
</svg>
