<?xml version="1.0" encoding="utf-8"?>
<!-- Generator: Adobe Illustrator 25.2.1, SVG Export Plug-In . SVG Version: 6.00 Build 0)  -->
<svg version="1.1" id="Layer_4" xmlns="http://www.w3.org/2000/svg" xmlns:xlink="http://www.w3.org/1999/xlink" x="0px" y="0px"
	 viewBox="0 0 24 24" style="enable-background:new 0 0 24 24;" xml:space="preserve">
<g>
	<path d="M2.4,2.2C3.9,3.8,5.5,5.4,7.1,7C7.1,7.1,7,7.2,7,7.2c0,0.1,0,0.2,0,0.2c0,0.1,0,0.3,0,0.4C5.3,6.1,3.6,4.4,1.9,2.7
		C2.1,2.5,2.2,2.4,2.4,2.2z"/>
	<path d="M17,7.9V7.5c0-0.2,0-0.3-0.1-0.4c1.6-1.6,3.1-3.2,4.7-4.8c0.2,0.2,0.3,0.3,0.4,0.5C20.4,4.4,18.7,6.1,17,7.9z"/>
	<path d="M19.1,15.6c-1.4,1.4-2.7,2.7-4.1,4.1c-0.6-0.7-0.9-1.8-0.4-2.8c0.6-0.4,1-1,1.4-1.5C17,14.7,18.4,14.9,19.1,15.6z"/>
	<path d="M9,19.7c-1.4-1.4-2.7-2.7-4.1-4.1c0.8-0.7,2.1-0.9,3.2-0.3c0.1,0.1,0.2,0.3,0.3,0.4c0.3,0.4,0.6,0.8,1,1.1
		C9.9,17.8,9.7,19,9,19.7z"/>
	<path d="M6.1,17.7c0.2,0.2,0.4,0.4,0.5,0.6c-0.2,0.3-0.5,0.5-0.7,0.8c-0.8,0.8-1.5,1.7-2.3,2.5c-0.3,0.3-0.7,0.3-1,0
		c-0.2-0.3-0.2-0.6,0.1-0.9c0.7-0.6,1.4-1.3,2.1-1.9C5.2,18.4,5.6,18.1,6.1,17.7z"/>
	<path d="M17.4,18.2c0.2-0.2,0.4-0.4,0.5-0.5c0.4,0.4,0.8,0.7,1.2,1.1c0.7,0.7,1.4,1.3,2.2,2c0.2,0.2,0.3,0.4,0.2,0.7
		c-0.1,0.2-0.4,0.4-0.6,0.4c-0.1,0-0.3-0.1-0.4-0.2C19.5,20.5,18.4,19.4,17.4,18.2z"/>
	<path d="M12.2,17.5c-0.1,0-0.2,0-0.3,0c0,0,0,0,0,0c-0.3,0-0.5-0.1-0.7-0.3c-0.3-0.2-0.6-0.4-0.9-0.7c-0.5-0.3-0.9-0.8-1.3-1.2
		c-0.8-1.1-1.2-2.4-1.3-3.9c0-1.1,0-2.2,0-3.3c0-0.1,0-0.1,0-0.2c0.1-0.3,0.4-0.6,0.8-0.4C9.2,8,9.9,8.2,10.7,8.3
		c0.8,0.1,1.5,0.1,2.3,0c0.9-0.1,1.8-0.4,2.6-0.8c0.2-0.1,0.5-0.1,0.6,0.1c0.1,0.1,0.1,0.3,0.1,0.5c0,1.1,0,2.2,0,3.3
		c0,0.7-0.1,1.4-0.3,2.1c-0.4,1.1-1,2.1-1.9,2.8c-0.4,0.3-0.9,0.6-1.3,0.9c-0.1,0.1-0.3,0.1-0.5,0.2C12.3,17.5,12.2,17.5,12.2,17.5z
		 M12,15.5c0.9,0,1.7-0.8,1.7-1.7c0-0.2-0.1-0.3-0.3-0.2c-1,0.5-1.9,0.5-2.9,0c-0.2-0.1-0.3,0-0.3,0.2C10.3,14.7,11.1,15.5,12,15.5z
		 M15.1,11.3c0-0.7-0.5-1.2-1.2-1.2c-0.7,0-1.2,0.6-1.2,1.3c0,0.2,0.1,0.2,0.3,0.1c0.6-0.4,1.2-0.4,1.8,0
		C15,11.6,15.1,11.5,15.1,11.3C15.1,11.3,15.1,11.3,15.1,11.3z M10.1,10.1c-0.7,0-1.2,0.5-1.2,1.2c0,0.1,0,0.2,0.1,0.2
		c0.1,0,0.1,0,0.2,0c0.6-0.4,1.2-0.4,1.8,0c0.2,0.1,0.3,0,0.3-0.1C11.3,10.7,10.8,10.1,10.1,10.1z"/>
</g>
</svg>
