<?xml version="1.0" encoding="utf-8"?>
<!-- Generator: Adobe Illustrator 25.2.1, SVG Export Plug-In . SVG Version: 6.00 Build 0)  -->
<svg version="1.1" xmlns="http://www.w3.org/2000/svg" xmlns:xlink="http://www.w3.org/1999/xlink" x="0px" y="0px"
	 viewBox="0 0 24 24" style="enable-background:new 0 0 24 24;" xml:space="preserve">
<g>
	<g class="l0">
		<path d="M20,22c-0.3-0.2-0.3-0.4,0-0.7c0.4-0.4,0.9-0.9,1.3-1.3c0,0,0.1-0.1,0.1-0.1c0.2-0.1,0.4-0.1,0.5,0c0.1,0.1,0.2,0.4,0,0.5
			c-0.6,0.6-1.1,1.1-1.7,1.7C20.1,22,20.1,22,20,22z"/>
		<path d="M16.7,15c-0.4-0.5-0.7-1.1-0.8-1.7c0-0.1-0.1-0.2-0.1-0.3c-3-3.2-5.9-6.4-8.9-9.6C6.8,3.3,6.6,3.2,6.5,3.2
			C5.2,2.8,3.9,2.4,2.5,2C2.4,2,2.2,2,2.1,2.1C2,2.2,2,2.4,2,2.5c0.4,1.3,0.8,2.7,1.2,4c0,0.1,0.1,0.2,0.2,0.3
			c3.1,2.9,6.2,5.8,9.3,8.6l1.1-1.1L7.4,7.9c0,0-0.1-0.1-0.1-0.1c-0.1-0.2-0.1-0.4,0-0.5c0.1-0.1,0.3-0.2,0.5,0
			c0.1,0,0.1,0.1,0.2,0.2c2.2,2.2,4.3,4.3,6.5,6.5l0.2-0.2l1.8,1.8C16.5,15.3,16.6,15.2,16.7,15C16.8,15.1,16.7,15,16.7,15z
			 M6.3,6.3c-0.1,0.1-0.4,0.1-0.5,0C5,5.5,4.3,4.8,3.6,4.1C3.5,4,3.4,3.8,3.5,3.7c0.1-0.1,0.2-0.2,0.3-0.3C3.9,3.5,4,3.5,4.1,3.6
			C4.8,4.3,5.5,5,6.2,5.7C6.4,5.9,6.4,6.1,6.3,6.3z"/>
		<path d="M6.5,10.7C6.7,10.9,6.8,11,7,11.2C6.7,11.1,6.3,11,6,11H3.6c-0.3-0.3-0.6-0.4-1-0.5c-0.2,0-0.4-0.1-0.4-0.3
			c-0.1-0.2,0-0.3,0.2-0.4c0.2-0.2,0.5-0.3,0.8-0.5C3.5,9.2,3.9,9,4.2,8.6C5,9.3,5.7,10,6.5,10.7z"/>
		<path d="M17.3,14.6c-0.4-0.4-0.6-1-0.7-1.5c0-0.1-0.1-0.3-0.2-0.4c-2.6-2.8-5.2-5.6-7.8-8.4c0,0-0.1-0.1-0.1-0.1
			c0,0,0.1-0.1,0.1-0.1c0.2-0.3,0.4-0.6,0.6-0.9c0.2-0.3,0.4-0.7,0.6-1c0.1-0.1,0.2-0.2,0.4-0.1c0.2,0,0.2,0.2,0.3,0.3
			c0.2,1.2,1.1,1.9,2.3,1.7c0.3-0.1,0.6-0.2,0.9-0.3c0.2-0.1,0.3-0.1,0.4,0c0.1,0.1,0.2,0.2,0.1,0.4c-0.1,0.3-0.2,0.7-0.3,1
			c-0.3,0.7-0.4,1.4-0.3,2.1c0.2,0.8,0.8,1.3,1.5,1.2c0.4,0,0.8-0.2,1.1-0.5c0.3-0.3,0.6-0.6,0.8-0.9c0.3-0.3,0.7-0.6,1.1-0.8
			c0.4-0.1,0.8,0,1.2,0.1c0.3,0.1,0.3,0.4,0.1,0.6c-0.2,0.2-0.4,0.4-0.6,0.7c-0.7,1-0.5,2.4,0.6,3c0.5,0.3,1.1,0.3,1.8,0.2
			c0.4-0.1,0.6,0.1,0.5,0.5c-0.3,1.2-1.1,2.1-2.3,2.6c-0.1,0-0.2,0-0.3-0.1c-0.1-0.1-0.2-0.2-0.3-0.3c-0.3-0.3-0.7-0.3-1.1,0
			C17.8,14.1,17.5,14.3,17.3,14.6z"/>
		<path d="M19.2,15.1c-0.1,0.1-0.2,0.3-0.2,0.3c-1.1,1.1-2.2,2.2-3.3,3.3c0,0,0,0,0,0l-0.3-0.3l2.1-2.1L17,15.9l1.2-1.2
			c0.3-0.3,0.4-0.3,0.7,0C19,14.8,19.1,14.9,19.2,15.1z"/>
		<path d="M18.3,19.3c0.3-0.3,0.7-0.7,1-1c0.4,0.4,0.9,0.9,1.3,1.3c-0.3,0.3-0.6,0.6-1,1C19.2,20.1,18.7,19.7,18.3,19.3z"/>
		<path d="M16.3,19.1c0.9-0.9,1.7-1.7,2.6-2.6c0.1,0.1,0.2,0.2,0.3,0.3c0.1,0.1,0.1,0.3,0,0.5c-0.7,0.7-1.4,1.4-2,2
			c-0.2,0.2-0.4,0.1-0.5,0C16.5,19.3,16.4,19.2,16.3,19.1z"/>
	</g>
	<g class="l1">
		<path d="M14.6,22l-2.1-2.1L10.4,22L9,20.6l2.1-2.1L9,16.4l1.4-1.4l2.1,2.1l2.1-2.1l1.4,1.4l-2.1,2.1l2.1,2.1L14.6,22z"/>
		<path d="M2,12v2h4v2H4c-1.1,0-2,0.9-2,2v4h2h4v-2H4v-2h2c1.1,0,2-0.9,2-2v-2c0-1.1-0.9-2-2-2H2z"/>
	</g>
</g>
</svg>
