<?xml version="1.0" encoding="utf-8"?>
<!-- Generator: Adobe Illustrator 25.2.1, SVG Export Plug-In . SVG Version: 6.00 Build 0)  -->
<svg version="1.1" xmlns="http://www.w3.org/2000/svg" xmlns:xlink="http://www.w3.org/1999/xlink" x="0px" y="0px"
	 viewBox="0 0 24 24" style="enable-background:new 0 0 24 24;" xml:space="preserve">

<g>
	<path class="l0" d="M22,8.3c0,3.8-3.4,6.9-8.5,11.5L12,21.2l-1.5-1.3c0,0,0,0,0,0l3.9-3.9H9V7L5,7.1v7.5c-1.9-2.1-3-4-3-6.2
		c0-3.1,2.4-5.5,5.5-5.5c1.7,0,3.4,0.8,4.5,2.1c1.1-1.3,2.8-2.1,4.5-2.1C19.6,2.8,22,5.2,22,8.3z"/>
	<path class="l1" d="M2,17h4V8l2,0V17h4l-5,5L2,17z"/>
</g>
</svg>
