<?xml version="1.0" encoding="utf-8"?>
<!-- Generator: Adobe Illustrator 25.2.1, SVG Export Plug-In . SVG Version: 6.00 Build 0)  -->
<svg version="1.1" xmlns="http://www.w3.org/2000/svg" xmlns:xlink="http://www.w3.org/1999/xlink" x="0px" y="0px"
	 viewBox="0 0 24 24" style="enable-background:new 0 0 24 24;" xml:space="preserve">
<g>
	<g>
		<path d="M22,17V18c-0.1,0-0.2,0-0.3,0c-2.1,0-4.3,0-6.4,0c-0.2,0-0.3-0.1-0.4-0.2c-1.7-2.1-3.3-4.2-5-6.3C9.5,10,8.7,8.3,6.8,7.7
			c-0.5-0.7-1.1-1.3-1.6-2c0,0-0.1-0.1-0.1-0.2L9.5,2c0.4,0.4,0.8,0.8,1.1,1.3C11,4,11.3,4.8,11.7,5.5c0.2,0.4,0.5,0.8,0.8,1.1
			c0.4,0.5,0.8,0.5,1.4,0.1c0.2-0.1,0.3-0.3,0.5-0.4c0.1-0.1,0.3-0.3,0.4-0.5c0.2,0.2,0.3,0.4,0.5,0.5c0.4,0.4,0.9,0.9,1.3,1.3
			c0.1,0,0.1,0.1,0.1,0.2c0.1,0.7,0.3,1.5,0.5,2.2h-4.4v1.3h0.3c1.3,0,2.7,0,4.1,0c0.2,0,0.3,0.1,0.4,0.3c0,0.3,0.1,0.7,0.2,1h-3.5
			v1.3h0.2c1.4,0,2.8,0,4.3,0c1.6,0,2.9,1,3.3,2.5C21.9,16.7,22,16.8,22,17z"/>
		<path d="M4.2,6.6c0.3,0.4,0.6,0.7,0.9,1.1c-0.8,0.3-1.4,0.9-2,1.8C2.8,9,2.4,8.6,2.1,8.2C2.1,8.1,2,8.1,2,8l2-1.6
			C4.1,6.5,4.1,6.5,4.2,6.6z"/>
		<path d="M22,19.4V22c-0.1,0-0.2,0-0.3,0h-8.4c-0.1,0-0.2-0.1-0.3-0.2c-1.3-1.7-2.7-3.4-4-5c0.5-1,0.9-2.2,1-3
			c1.4,1.8,2.8,3.5,4.2,5.3c0.1,0.2,0.3,0.2,0.5,0.2c2.4,0,4.7,0,7,0C21.8,19.3,21.9,19.4,22,19.4z"/>
	</g>
	<path d="M6.8,19.9c0,0.1-0.7,2.9-3.6,1.9c-1.4-0.5-1.5-1.8-1-3L6.8,19.9"/>
	<path d="M9,13.7c0.1-1.3-0.2-4-2.7-4.6c-2.1-0.6-3.4,2.8-3.4,4.4c0,1.2,0.3,2.3,0.1,3.3l4.3,1.1C7.4,17.7,8.9,15,9,13.7z"/>
</g>

</svg>
