<?xml version="1.0" encoding="utf-8"?>
<!-- Generator: Adobe Illustrator 25.2.1, SVG Export Plug-In . SVG Version: 6.00 Build 0)  -->
<svg version="1.1" xmlns="http://www.w3.org/2000/svg" xmlns:xlink="http://www.w3.org/1999/xlink" x="0px" y="0px"
	 viewBox="0 0 24 24" style="enable-background:new 0 0 24 24;" xml:space="preserve">
<g>
	<path d="M22,18c-0.1,0-0.2,0-0.3,0c-2.1,0-4.3,0-6.4,0c-0.2,0-0.3-0.1-0.4-0.2c-3.2-4-6.4-8.1-9.7-12.1c0,0-0.1-0.1-0.1-0.2L9.5,2
		c0.4,0.4,0.8,0.8,1.1,1.3C11,4,11.3,4.7,11.7,5.5c0.2,0.4,0.5,0.8,0.8,1.1c0.4,0.5,0.8,0.5,1.4,0.1c0.2-0.1,0.3-0.3,0.5-0.4
		c0.1-0.1,0.3-0.3,0.4-0.5c0.2,0.2,0.3,0.4,0.5,0.5c0.4,0.4,0.9,0.9,1.3,1.3c0.1,0,0.1,0.1,0.1,0.2c0.2,0.7,0.3,1.5,0.5,2.2h-4.3
		v1.3H13c1.4,0,2.7,0,4.1,0c0.2,0,0.3,0.1,0.4,0.3c0,0.3,0.1,0.7,0.2,1h-3.6V14h0.3c1.4,0,2.8,0,4.3,0c1.6,0,2.9,1,3.3,2.5
		c0,0.2,0.1,0.3,0.1,0.5V18z"/>
	<path d="M22,21.9c-0.1,0-0.2,0-0.3,0c-2.8,0-5.6,0-8.4,0c-0.1,0-0.3,0-0.3-0.2C9.4,17.2,5.7,12.7,2.1,8.1C2.1,8.1,2,8.1,2,8l2-1.6
		c0.1,0.1,0.1,0.1,0.1,0.2c3.3,4.2,6.7,8.4,10,12.6c0.1,0.1,0.3,0.2,0.5,0.2c2.3,0,4.7,0,7,0c0.1,0,0.2,0,0.3,0L22,21.9z"/>
</g>
</svg>
