<?xml version="1.0" encoding="utf-8"?>
<!-- Generator: Adobe Illustrator 25.2.1, SVG Export Plug-In . SVG Version: 6.00 Build 0)  -->
<svg version="1.1" xmlns="http://www.w3.org/2000/svg" xmlns:xlink="http://www.w3.org/1999/xlink" x="0px" y="0px"
	 viewBox="0 0 24 24" style="enable-background:new 0 0 24 24;" xml:space="preserve">

<g>
	<path d="M21.7,3.3l-1-1c-0.5-0.4-1.2-0.4-1.6,0L15.4,6l-3.1-3.1l-1.6,1.6l1.6,1.6l-0.5,0.5c0.2,0.3,0.3,0.6,0.5,0.9
		c0.2,0.3,0.3,0.6,0.5,0.9c0.1,0.2,0.2,0.3,0.3,0.4C13.1,9,13.3,9.1,13.5,9c0,0,0.1,0,0.1-0.1l0.2-0.2l0.1-0.1l0.1-0.1l0.7-0.8
		l0.5,0.5l1.2,1.2c0.2,0.2,0.4,0.5,0.6,0.7c0.1,0.6,0.3,1.7,0.4,2l0.5-0.5l1.6,1.6l1.7-1.6L18,8.6L21.7,5
		C22.1,4.5,22.1,3.8,21.7,3.3C21.7,3.3,21.7,3.3,21.7,3.3z M6.6,19.7H4.3l3-3l-2.4-3L2,16.5V22h5.5l2.3-2.3
		c-0.5-0.6-1-1.2-1.5-1.8L6.6,19.7z"/>
	<g>
		<path d="M20.2,18.1v0.8h-0.2h-5c-0.1,0-0.3-0.1-0.3-0.2L7.2,9.5l3.2-3.2c0.3,0.3,0.6,0.6,0.8,1c0.3,0.6,0.6,1.2,0.9,1.7
			c0.2,0.3,0.4,0.6,0.6,0.9c0.2,0.3,0.6,0.4,0.9,0.2c0,0,0.1-0.1,0.1-0.1c0.1-0.1,0.3-0.2,0.4-0.3c0.1-0.1,0.2-0.2,0.3-0.4
			l0.4,0.4c0.3,0.3,0.7,0.7,1,1c0,0,0.1,0.1,0.1,0.1c0.1,0.6,0.2,1.2,0.4,1.7H13v1h3.4c0.2,0,0.3,0,0.3,0.2c0,0.2,0.1,0.5,0.2,0.8
			H14v1h3.5c1.2,0,2.3,0.8,2.6,1.9C20.1,17.8,20.1,17.9,20.2,18.1z"/>
		<path d="M20.2,19.9V22h-0.2h-6.6c-0.1,0-0.2,0-0.3-0.1c-2.7-3.4-5.4-6.8-8.1-10.1l1.5-1.5l7.6,9.5c0.1,0.1,0.2,0.2,0.4,0.2
			L20.2,19.9L20.2,19.9z"/>
	</g>
</g>

</svg>
