<?xml version="1.0" encoding="utf-8"?>
<!-- Generator: Adobe Illustrator 25.2.1, SVG Export Plug-In . SVG Version: 6.00 Build 0)  -->
<svg version="1.1" xmlns="http://www.w3.org/2000/svg" xmlns:xlink="http://www.w3.org/1999/xlink" x="0px" y="0px"
	 viewBox="0 0 24 24" style="enable-background:new 0 0 24 24;" xml:space="preserve">
<g>
	<g>
		<path d="M22,16.9v1c-0.1,0-0.2,0-0.3,0c-2.1,0-4.3,0-6.4,0c-0.2,0-0.3-0.1-0.4-0.2c-1.2-1.5-2.4-3-3.6-4.5l0.8-1l-2.4-1.9
			l-0.4,0.5C7.9,9.1,6.6,7.4,5.2,5.7c0,0-0.1-0.1-0.1-0.2l4.5-3.6c0.4,0.4,0.8,0.8,1.1,1.3C11,4,11.3,4.7,11.7,5.5
			c0.2,0.4,0.5,0.8,0.8,1.1c0.4,0.5,0.8,0.5,1.4,0.1c0.2-0.1,0.3-0.3,0.5-0.4c0.1-0.1,0.3-0.3,0.4-0.5c0.2,0.2,0.3,0.4,0.5,0.5
			c0.4,0.4,0.9,0.9,1.3,1.3c0.1,0,0.1,0.1,0.1,0.2c0.2,0.7,0.3,1.5,0.5,2.2h-4.4v1.3H13c1.4,0,2.7,0,4.1,0c0.2,0,0.3,0.1,0.4,0.3
			c0,0.3,0.1,0.7,0.2,1h-3.5V14h0.2c1.4,0,2.8,0,4.3,0c1.6,0,2.9,1,3.3,2.5C21.9,16.6,22,16.8,22,16.9z"/>
		<path d="M4.2,6.5c1.4,1.8,2.9,3.6,4.3,5.4L6.8,14c-0.4-0.5-0.8-1-1.2-1.5v-2H4C3.4,9.7,2.7,8.9,2.1,8.1C2.1,8.1,2,8.1,2,8L4,6.3
			C4.1,6.4,4.1,6.5,4.2,6.5z"/>
		<path d="M22,19.3v2.6c-0.1,0-0.2,0-0.3,0h-8.4c-0.1,0-0.3,0-0.3-0.1c-0.2-0.3-0.5-0.6-0.7-0.9c0-0.4,0-1-0.2-1.5
			c0.3-0.6,0.2-1.2,0.2-1.5c0-0.7-0.3-1.2-0.6-1.4c-0.6-0.6-1.6-0.7-2.4-0.6l1.1-1.5c1.3,1.6,2.5,3.2,3.8,4.8
			c0.1,0.2,0.3,0.2,0.5,0.2c2.4,0,4.7,0,7,0C21.8,19.3,21.9,19.3,22,19.3z"/>
	</g>
	<path d="M3.3,21.8l-0.8-0.6l7.3-9.4l0.8,0.6L3.3,21.8"/>
	<path d="M11.3,21v-0.8c0-0.4-0.4-0.8-0.8-0.8c0.4,0,0.8-0.4,0.8-0.8v-0.8c0-0.6-0.5-1-1-1H8.1v1h2.1v1h-1v1h1v1H8.1v1h2.1
		C10.8,22,11.3,21.5,11.3,21"/>
	<path d="M2.5,11.5v1h1v4.2h1v-5.2H2.5z"/>
</g>
</svg>
