<?xml version="1.0" encoding="utf-8"?>
<!-- Generator: Adobe Illustrator 25.2.1, SVG Export Plug-In . SVG Version: 6.00 Build 0)  -->
<svg version="1.1" xmlns="http://www.w3.org/2000/svg" xmlns:xlink="http://www.w3.org/1999/xlink" x="0px" y="0px"
	 viewBox="0 0 24 24" style="enable-background:new 0 0 24 24;" xml:space="preserve">
<g>
	<g>
		<path d="M22,17V18c-0.1,0-0.2,0-0.3,0c-2.1,0-4.3,0-6.4,0c-0.2,0-0.3-0.1-0.4-0.2c-1.3-1.7-2.7-3.3-4-5l0.6-0.7l-1-0.8l0,0l-1-0.8
			l-0.2,0.2c-1.3-1.7-2.7-3.3-4-5c0,0-0.1-0.1-0.1-0.2L9.5,2c0.4,0.4,0.8,0.8,1.1,1.3C11,4,11.3,4.8,11.7,5.5
			c0.2,0.4,0.5,0.8,0.8,1.1c0.4,0.5,0.8,0.5,1.4,0.1c0.2-0.1,0.3-0.3,0.5-0.4c0.1-0.1,0.3-0.3,0.4-0.5c0.2,0.2,0.3,0.4,0.5,0.5
			l1.3,1.3c0.1,0,0.1,0.1,0.1,0.2c0.1,0.7,0.3,1.5,0.5,2.2h-4.4v1.3h0.3c1.3,0,2.7,0,4.1,0c0.2,0,0.3,0.1,0.4,0.3
			c0,0.3,0.1,0.7,0.2,1h-3.5v1.3h0.2c1.4,0,2.8,0,4.3,0c1.6,0,2.9,1,3.3,2.5C21.9,16.7,22,16.8,22,17z"/>
		<path d="M4.2,6.6c1.4,1.8,2.8,3.5,4.2,5.3L6.7,14C5.2,12,3.7,10.1,2.1,8.2C2.1,8.1,2,8.1,2,8l2-1.6C4.1,6.5,4.1,6.5,4.2,6.6z"/>
		<path d="M22,19.4V22c-0.1,0-0.2,0-0.3,0h-8.4c-0.1,0-0.2-0.1-0.3-0.2c-0.5-0.7-1-1.3-1.5-1.9c0.2-0.3,0.4-0.6,0.4-1v-1.5
			c0-0.8-0.7-1.5-1.5-1.5H8.5l1.6-2c1.4,1.7,2.8,3.5,4.2,5.2c0.1,0.2,0.3,0.2,0.5,0.2c2.4,0,4.7,0,7,0C21.8,19.3,21.9,19.4,22,19.4z
			"/>
	</g>
	<path d="M2.9,21.8l-0.8-0.6l7.3-9.4l0.8,0.6L2.9,21.8 M2,11.6v1h1v4.2h1v-5.2H2 M7.7,16.8v1h2.1v1h-1c-0.6,0-1,0.5-1,1V22h3.1v-1
		H8.8v-1h1c0.6,0,1-0.5,1-1v-1c0-0.6-0.5-1-1-1H7.7z"/>
</g>
</svg>
