<?xml version="1.0" encoding="utf-8"?>
<!-- Generator: Adobe Illustrator 25.2.1, SVG Export Plug-In . SVG Version: 6.00 Build 0)  -->
<svg version="1.1" xmlns="http://www.w3.org/2000/svg" xmlns:xlink="http://www.w3.org/1999/xlink" x="0px" y="0px"
	 viewBox="0 0 24 24" style="enable-background:new 0 0 24 24;" xml:space="preserve">
<g>
	<g class="l0">
		<path d="M12.8,11L6.3,4.5l3.2-2.6c0.4,0.4,0.8,0.8,1.1,1.3C11,4,11.3,4.7,11.7,5.5c0.2,0.4,0.5,0.8,0.8,1.1
			c0.4,0.5,0.8,0.5,1.4,0.1c0.2-0.1,0.3-0.3,0.5-0.4c0.1-0.1,0.3-0.3,0.4-0.5c0.2,0.2,0.3,0.4,0.5,0.5c0.4,0.4,0.9,0.9,1.3,1.3
			c0.1,0,0.1,0.1,0.1,0.2c0.2,0.7,0.3,1.5,0.5,2.2h-4.4V11z"/>
		<path d="M6.1,6.9L17.2,18h-2c-0.2,0-0.3-0.1-0.4-0.2C12,14.1,9,10.5,6.1,6.9z"/>
		<path d="M17.1,11.4c0.2,0,0.3,0.1,0.4,0.3c0,0.3,0.1,0.7,0.2,1h-3.1l-1.3-1.3C14.5,11.4,15.8,11.4,17.1,11.4z"/>
		<path d="M22,16.9v1c-0.1,0-0.2,0-0.3,0h-1.9l-4-4c0.9,0,1.9,0,2.8,0c1.6,0,2.9,1,3.3,2.5C21.9,16.6,22,16.8,22,16.9z"/>
		<path d="M18.6,19.3l2.6,2.6h-7.9c-0.1,0-0.3,0-0.3-0.1C9.4,17.2,5.7,12.7,2.1,8.1C2.1,8.1,2,8.1,2,8L4,6.3c0,0.1,0.1,0.1,0.1,0.2
			c3.4,4.2,6.7,8.4,10,12.6c0.1,0.2,0.3,0.2,0.5,0.2C16,19.3,17.3,19.3,18.6,19.3z"/>
		<path d="M22,19.3v0.9l-0.9-0.9h0.6C21.8,19.3,21.9,19.3,22,19.3z"/>
	</g>
	<path class="l1" d="M19.7,23l1.3-1.3L2.3,3L1,4.3L19.7,23z"/>
</g>
</svg>
