<?xml version="1.0" encoding="utf-8"?>
<!-- Generator: Adobe Illustrator 25.2.1, SVG Export Plug-In . SVG Version: 6.00 Build 0)  -->
<svg version="1.1" xmlns="http://www.w3.org/2000/svg" xmlns:xlink="http://www.w3.org/1999/xlink" x="0px" y="0px"
	 viewBox="0 0 24 24" style="enable-background:new 0 0 24 24;" xml:space="preserve">
<g>
	<path d="M21.7,18c0,0.1-0.1,0.2-0.1,0.3c-0.3,1.2-1.5,2-2.7,1.8c-1.2-0.1-2.1-1.2-2.1-2.4c0-1.2,0.9-2.3,2.1-2.5
		c1.3-0.2,2.6,0.7,2.8,2c0,0,0,0.1,0,0.1C21.7,17.6,21.7,17.8,21.7,18z"/>
	<path d="M6.2,21.7c-2.2,0-4-1.8-4-4c0-2.2,1.8-4,4-3.9c2.2,0,4,1.8,4,4C10.2,19.9,8.4,21.7,6.2,21.7z"/>
	<path d="M8.7,4.8c0,1.4-1.1,2.5-2.5,2.5c-1.4,0-2.5-1.1-2.5-2.5c0-1.4,1.1-2.5,2.5-2.5C7.6,2.3,8.7,3.4,8.7,4.8z"/>
	<path d="M16.6,9.8c-1.4,0-2.5-1.1-2.5-2.5c0-1.4,1.1-2.5,2.5-2.5C17.9,4.9,19,6,19,7.4C19,8.7,17.9,9.9,16.6,9.8z"/>
	<path d="M9.5,13.7c1.4-1.4,2.8-2.8,4.1-4.1c0.2,0.2,0.5,0.5,0.7,0.7c-1.3,1.3-2.7,2.7-4.1,4.1C10,14.2,9.8,13.9,9.5,13.7z"/>
	<path d="M11.4,17.1c1.4,0,2.8,0,4.2,0c0,0.4,0,0.7,0,1.1c-1.4,0-2.8,0-4.2,0C11.4,17.9,11.4,17.5,11.4,17.1z"/>
	<path d="M6.8,12.6c-0.4,0-0.7,0-1.1,0c0-1.4,0-2.8,0-4.2c0.4,0,0.7,0,1.1,0C6.8,9.8,6.8,11.2,6.8,12.6z"/>
</g>
</svg>
