<?xml version="1.0" encoding="utf-8"?>
<!-- Generator: Adobe Illustrator 25.2.1, SVG Export Plug-In . SVG Version: 6.00 Build 0)  -->
<svg version="1.1" xmlns="http://www.w3.org/2000/svg" xmlns:xlink="http://www.w3.org/1999/xlink" x="0px" y="0px"
	 viewBox="0 0 24 24" style="enable-background:new 0 0 24 24;" xml:space="preserve">
<g>
	<g class="l0">
		<path d="M20.6,10.1c-0.1,3.8-1.7,7-4.6,9.5c-1,0.8-2,1.4-3.2,1.9c-0.1,0-0.1,0.1-0.1,0.1h-0.1v-1.1L13,20l-0.5-0.5v-0.3
			c0-0.1,0-0.2,0.2-0.3c2.8-1.5,4.5-3.7,5.3-6.7c0.2-0.8,0.3-1.6,0.3-2.5V6.6c0-0.1,0-0.2-0.2-0.2c-1.8-0.5-3.6-1-5.4-1.5
			c-0.1,0-0.2-0.1-0.2-0.3c0-0.6,0-1.3,0-2V2.4c0.4,0.1,0.7,0.2,1.1,0.3c2.3,0.6,4.5,1.3,6.8,1.9c0.1,0,0.2,0.1,0.2,0.2
			C20.6,6.6,20.6,8.4,20.6,10.1z"/>
		<path d="M11.4,2.6c0,0.7,0,1.3,0,2c0,0.2,0,0.2-0.2,0.2c-1.8,0.5-3.6,1-5.4,1.5c0,0-0.1,0-0.1,0c0,0,0,0,0,0c0,1.4,0,2.8,0,4.2
			c0,0.2,0,0.3,0.1,0.4v1.7L4,11l-0.5,0.5c-0.1-0.6-0.1-1.1-0.1-1.7V4.9c0-0.2,0-0.2,0.2-0.2c2.5-0.7,5.1-1.5,7.7-2.2
			c0,0,0.1,0,0.2,0C11.4,2.5,11.4,2.6,11.4,2.6z"/>
		<path d="M17.1,10.9c-0.1,0.5-0.2,0.9-0.3,1.4c-0.6,1.9-1.6,3.5-3.1,4.7V15h-2.6l1.8-1.8l-2.2-2.4L9,12.6v-2.4
			c0.5-0.1,1-0.3,1.5-0.4c0.5-0.1,0.9-0.3,1.4-0.4c0.1,0,0.2,0,0.2,0C13.8,9.9,15.4,10.4,17.1,10.9C17.1,10.8,17.1,10.8,17.1,10.9z"
			/>
		<path d="M17.2,9.7c-0.5-0.1-1-0.3-1.5-0.4c-1.2-0.3-2.3-0.7-3.5-1c-0.1,0-0.3,0-0.4,0C10.2,8.7,8.6,9.2,7,9.6c-0.1,0-0.1,0-0.2,0
			c0-0.1,0-0.1,0-0.1c0-0.7,0-1.4,0-2.1c0-0.1,0-0.2,0.2-0.2c1.6-0.5,3.3-0.9,4.9-1.4c0.1,0,0.2,0,0.2,0c1.6,0.5,3.3,0.9,4.9,1.4
			c0.1,0,0.1,0,0.1,0.2C17.2,8.2,17.2,8.9,17.2,9.7C17.2,9.6,17.2,9.6,17.2,9.7z"/>
	</g>
	<path class="l1" d="M12.8,17.2H8.8l2.8,2.8l-0.8,0.8L8,18.1V22H6.8v-4L4,20.8L3.1,20l2.7-2.7H2V16h3.9l-2.8-2.8L4,12.4l2.8,2.8v-3.9H8v3.8
		l2.7-2.7l0.8,0.9L8.7,16h4V17.2z"/>
</g>
</svg>
