<?xml version="1.0" encoding="utf-8"?>
<!-- Generator: Adobe Illustrator 25.2.1, SVG Export Plug-In . SVG Version: 6.00 Build 0)  -->
<svg version="1.1" xmlns="http://www.w3.org/2000/svg" xmlns:xlink="http://www.w3.org/1999/xlink" x="0px" y="0px"
	 viewBox="0 0 24 24" style="enable-background:new 0 0 24 24;" xml:space="preserve">
<g>
	<g class="l0">
		<path d="M15.8,16.5l1.6,1.6c-0.5,0.5-0.9,1-1.5,1.4c-1,0.8-2,1.4-3.2,1.9c-0.1,0-0.1,0.1-0.1,0.1h-0.1v-2.3c0-0.1,0-0.2,0.2-0.3
			C13.9,18.3,15,17.5,15.8,16.5z"/>
		<path d="M20.6,10.1c-0.1,2.5-0.8,4.7-2,6.6L16.9,15c0.5-0.8,0.9-1.8,1.1-2.8c0.2-0.8,0.3-1.6,0.3-2.5V6.6c0-0.1,0-0.2-0.2-0.2
			c-1.8-0.5-3.6-1-5.4-1.5c-0.1,0-0.2-0.1-0.2-0.3c0-0.6,0-1.3,0-2V2.4c0.4,0.1,0.7,0.2,1.1,0.3c2.3,0.6,4.5,1.3,6.8,1.9
			c0.1,0,0.2,0.1,0.2,0.2C20.6,6.6,20.6,8.4,20.6,10.1z"/>
		<path d="M7.7,5.9L5.9,4c1.8-0.5,3.6-1,5.4-1.5c0,0,0.1,0,0.2,0c0,0.1,0,0.1,0,0.2c0,0.7,0,1.3,0,2c0,0.2,0,0.2-0.2,0.2
			C10.1,5.2,8.9,5.5,7.7,5.9z"/>
		<path d="M11.4,21.5L11.4,21.5c-0.2-0.1-0.4-0.1-0.5-0.2c-3.4-1.5-5.7-4.1-6.9-7.6c-0.5-1.3-0.6-2.6-0.6-4V4.9c0-0.2,0-0.2,0.2-0.2
			c0.1,0,0.2-0.1,0.3-0.1l1.8,1.8c0,0,0,0,0,0c0,0,0,0,0,0c0,1.4,0,2.8,0,4.2C5.9,13,6.8,15,8.4,16.8c0.8,0.9,1.8,1.7,2.9,2.2
			c0.1,0.1,0.1,0.1,0.1,0.3C11.4,20,11.4,20.8,11.4,21.5z"/>
		<path d="M9.4,10.1l5.6,5.6c-0.8,0.9-1.7,1.7-2.9,2.3C12,18,12,18.1,11.8,18c-2.7-1.5-4.3-3.7-4.9-6.7c0-0.2,0-0.3-0.1-0.5
			C7.7,10.6,8.6,10.4,9.4,10.1z"/>
		<path d="M17.1,10.9c-0.1,0.5-0.2,0.9-0.3,1.4c-0.2,0.7-0.5,1.3-0.8,1.9l-4.6-4.6c0.2,0,0.3-0.1,0.5-0.1c0.1,0,0.2,0,0.2,0
			C13.8,9.9,15.4,10.4,17.1,10.9C17.1,10.8,17.1,10.8,17.1,10.9z"/>
		<path d="M6.8,7.5l1.7,1.7C8,9.4,7.5,9.5,7,9.6c0,0-0.1,0-0.2,0c0,0,0-0.1,0-0.1V7.5z"/>
		<path d="M17.2,7.4c0,0.7,0,1.5,0,2.2c0,0,0,0,0,0.1c-0.5-0.1-1-0.3-1.5-0.4c-1.2-0.3-2.3-0.7-3.5-1c-0.1,0-0.3,0-0.4,0
			c-0.4,0.1-0.9,0.2-1.3,0.4L8.6,6.8c1.1-0.3,2.2-0.6,3.2-0.9c0.1,0,0.2,0,0.2,0c1.7,0.5,3.3,0.9,4.9,1.4
			C17.1,7.3,17.2,7.3,17.2,7.4z"/>
	</g>
	<path class="l1" d="M19.7,23l1.3-1.3L2.3,3L1,4.3L19.7,23z"/>
</g>
</svg>
