<?xml version="1.0" encoding="utf-8"?>
<!-- Generator: Adobe Illustrator 25.2.1, SVG Export Plug-In . SVG Version: 6.00 Build 0)  -->
<svg version="1.1" id="Layer_6" xmlns="http://www.w3.org/2000/svg" xmlns:xlink="http://www.w3.org/1999/xlink" x="0px" y="0px"
	 viewBox="0 0 24 24" style="enable-background:new 0 0 24 24;" xml:space="preserve">
<g>
	<path d="M12.6,21.6c0-0.8,0-1.5,0-2.3c0-0.1,0-0.2,0.2-0.3c2.8-1.5,4.5-3.7,5.3-6.7c0.2-0.8,0.3-1.6,0.3-2.5c0-1.1,0-2.1,0-3.2
		c0-0.1,0-0.2-0.2-0.2c-1.8-0.5-3.6-1-5.4-1.5c-0.1,0-0.2-0.1-0.2-0.3c0-0.7,0-1.3,0-2c0-0.1,0-0.1,0-0.2c0.4,0.1,0.7,0.2,1.1,0.3
		c2.3,0.6,4.5,1.3,6.8,1.9c0.1,0,0.2,0.1,0.2,0.2c0,1.7,0,3.5,0,5.2c-0.1,3.8-1.7,7-4.6,9.5c-1,0.8-2,1.4-3.2,1.9
		C12.7,21.5,12.7,21.5,12.6,21.6C12.6,21.6,12.6,21.6,12.6,21.6z"/>
	<path d="M11.4,21.6c-0.1-0.1-0.3-0.1-0.4-0.2c-3.4-1.5-5.7-4.1-6.9-7.6c-0.4-1.3-0.6-2.6-0.6-4c0-1.6,0-3.2,0-4.8
		c0-0.2,0-0.2,0.2-0.3C6.1,4,8.7,3.2,11.3,2.5c0,0,0.1,0,0.2,0c0,0.1,0,0.1,0,0.2c0,0.7,0,1.3,0,2c0,0.2-0.1,0.2-0.2,0.2
		c-1.8,0.5-3.6,1-5.4,1.5c-0.1,0-0.1,0-0.1,0c0,0,0,0,0,0c0,1.4,0,2.8,0,4.2C5.9,13,6.8,15,8.4,16.8c0.8,0.9,1.8,1.6,2.9,2.2
		c0.1,0.1,0.2,0.1,0.2,0.3C11.4,20,11.4,20.8,11.4,21.6C11.4,21.6,11.4,21.6,11.4,21.6z"/>
	<path d="M6.9,10.9c1.2-0.3,2.4-0.7,3.6-1c0.5-0.1,0.9-0.3,1.4-0.4c0.1,0,0.2,0,0.2,0c1.6,0.5,3.3,0.9,4.9,1.4c0,0,0,0,0.1,0
		c-0.1,0.5-0.2,0.9-0.3,1.4c-0.7,2.6-2.3,4.5-4.7,5.7C12,18,12,18.1,11.8,18c-2.7-1.4-4.3-3.7-4.9-6.7C6.9,11.2,6.9,11,6.9,10.9z"/>
	<path d="M17.2,9.7c-0.5-0.1-1-0.3-1.5-0.4c-1.2-0.3-2.3-0.7-3.5-1c-0.1,0-0.3,0-0.4,0C10.2,8.7,8.6,9.2,7,9.6c-0.1,0-0.1,0-0.2,0
		c0-0.1,0-0.1,0-0.1c0-0.7,0-1.4,0-2.1c0-0.1,0-0.2,0.2-0.2c1.6-0.5,3.3-0.9,4.9-1.4c0.1,0,0.2,0,0.2,0c1.6,0.5,3.3,0.9,4.9,1.4
		c0.1,0,0.1,0,0.1,0.2C17.2,8.2,17.2,8.9,17.2,9.7C17.2,9.6,17.2,9.6,17.2,9.7z"/>
</g>
</svg>
