<?xml version="1.0" encoding="utf-8"?>
<!-- Generator: Adobe Illustrator 25.2.1, SVG Export Plug-In . SVG Version: 6.00 Build 0)  -->
<svg version="1.1" id="Layer_5" xmlns="http://www.w3.org/2000/svg" xmlns:xlink="http://www.w3.org/1999/xlink" x="0px" y="0px"
	 viewBox="0 0 24 24" style="enable-background:new 0 0 24 24;" xml:space="preserve">
<g>
	<path d="M20.6,3.8c-0.2,0.7-0.3,1.4-0.5,2.1C19.9,7,19.6,8,19.4,9c0,0.1-0.1,0.2-0.2,0.3c-2.8,2.2-5.6,4.4-8.4,6.6
		c0,0-0.1,0.1-0.1,0.1c-0.4-0.4-0.8-0.8-1.2-1.2C13.2,11.2,16.9,7.5,20.6,3.8z"/>
	<path d="M20.2,3.3c-0.1,0-0.1,0.1-0.2,0.1c-0.9,0.9-1.7,1.7-2.6,2.6c-0.1,0.1-0.2,0.2-0.4,0.2c-1.1,0-2.1,0-3.2,0
		c0,0.2,0,0.4,0,0.6c0.9,0,1.8,0,2.8,0c-0.2,0.2-0.4,0.4-0.6,0.6c0,0-0.1,0-0.2,0c-0.9,0-1.7,0-2.6,0c0,0.2,0,0.4,0,0.6
		c0.7,0,1.4,0,2,0c-2.1,2.1-4.2,4.2-6.2,6.2c-0.4-0.4-0.7-0.8-1.2-1.2c0.3-0.4,0.6-0.8,1-1.3c1.9-2.4,3.8-4.9,5.7-7.3
		c0.1-0.1,0.2-0.1,0.3-0.2c1.7-0.4,3.5-0.8,5.2-1.2C20.1,3.3,20.1,3.3,20.2,3.3C20.2,3.3,20.2,3.3,20.2,3.3z"/>
	<path d="M3,7.2c0.4,0,0.8-0.1,1.2-0.1c2.1-0.3,4-1.1,5.7-2.4c0.7-0.5,1.3-1,2-1.5c0,0,0.2-0.1,0.2,0c0.6,0.5,1.2,0.9,1.9,1.4
		c-0.3,0.4-0.7,0.9-1,1.3c-0.2-0.2-0.4-0.3-0.6-0.5c-0.2-0.2-0.3-0.2-0.6,0C11,5.8,10.5,6.2,9.9,6.6C8.5,7.6,7,8.1,5.4,8.2
		c-0.1,0-0.1,0-0.2,0C5,8.2,4.8,8.4,4.9,8.6c0.2,1,0.5,2,0.7,3c0.1,0.3,0.1,0.6,0.1,0.9c-0.1,0.6-0.2,1.2-0.3,1.9
		C4.1,12.1,3.4,9.7,3,7.2z"/>
	<path d="M8.2,18c0.2-0.1,0.3-0.3,0.5-0.4c0.2,0.2,0.4,0.4,0.6,0.6c0.1,0.1,0.3,0.2,0.5,0.2c0.2,0,0.4-0.1,0.6-0.1
		c0.1,0,0.2,0,0.3,0.1c0.3,0.2,0.6,0.4,0.9,0.6c0.2,0.1,0.4,0.1,0.6,0c2.7-1.6,4.5-3.8,5.6-6.8c0.1-0.3,0.2-0.7,0.4-1
		c0-0.1,0.1-0.2,0.2-0.2c0.5-0.4,1-0.8,1.5-1.2c0.1-0.1,0.2-0.2,0.2-0.4c0.2-0.7,0.3-1.3,0.5-2c0.1-0.3,0.1-0.3,0.4-0.2
		c-0.4,2.2-0.9,4.3-2,6.3c-1.6,3.1-3.8,5.5-6.8,7.4c-0.1,0.1-0.2,0.1-0.4,0C10.5,20.1,9.3,19.1,8.2,18z"/>
	<path d="M7.4,12.8c-0.3-0.3-0.6-0.6-1-1c-0.1-0.1-0.1-0.2-0.1-0.3C6.1,10.7,5.9,9.8,5.6,9c0,0,0-0.1,0-0.1C6,8.8,6.4,8.8,6.7,8.7
		C8,8.5,9.2,8,10.2,7.2c0.6-0.4,1.1-0.8,1.7-1.2c0.2,0.1,0.3,0.3,0.5,0.4C10.7,8.5,9.1,10.7,7.4,12.8z"/>
	<path d="M11.6,18.2c0.1,0,0.2,0,0.3-0.1c0.1-0.1,0.3-0.1,0.3-0.2c0-0.1,0-0.3-0.1-0.4c-0.3-0.3-0.6-0.6-0.8-0.9
		c0,0-0.1-0.1-0.1-0.2c2-1.6,4-3.2,6-4.7c0,0,0,0,0,0c-0.1,0.3-0.3,0.7-0.4,1c-1,2.4-2.6,4.2-4.8,5.5C11.8,18.4,11.8,18.3,11.6,18.2
		z"/>
	<path d="M6.9,18.5c-0.7,0.7-1.4,1.5-2.2,2.2c-0.1,0.1-0.3,0.1-0.5,0c-0.3-0.3-0.7-0.7-1-1c-0.1-0.1-0.1-0.3,0-0.4
		C4,18.5,4.7,17.7,5.4,17C5.9,17.5,6.4,18,6.9,18.5z"/>
	<path d="M6.3,12.7c1.6,1.6,3.2,3.2,4.8,4.8c-0.4,0.1-0.9,0.1-1.3,0.2c0,0-0.1,0-0.2-0.1c-1.2-1.1-2.3-2.3-3.5-3.5
		c0,0-0.1-0.1-0.1-0.2C6.2,13.6,6.3,13.2,6.3,12.7z"/>
	<path d="M6,16.5c0.2-0.2,0.5-0.5,0.8-0.8c0.5,0.5,1,1,1.4,1.4c-0.2,0.2-0.5,0.5-0.8,0.8C6.9,17.5,6.5,17,6,16.5z"/>
	<path d="M5.5,3.6c-0.2,0-0.4,0-0.6,0c0,0.2,0,0.4,0,0.6c-0.2,0-0.4,0-0.6,0c0-0.2,0-0.4,0-0.6c-0.2,0-0.4,0-0.6,0
		c0-0.2,0-0.4,0-0.6C3.8,3,4,3,4.2,3c0-0.2,0-0.4,0-0.6c0.2,0,0.4,0,0.6,0c0,0.2,0,0.4,0,0.6C5,3,5.2,3,5.5,3
		C5.5,3.2,5.5,3.4,5.5,3.6z"/>
	<path d="M20.9,14.3c0,0.2,0,0.4,0,0.6c0.2,0,0.4,0,0.6,0c0,0.2,0,0.4,0,0.6c-0.2,0-0.4,0-0.6,0c0,0.2,0,0.4,0,0.6
		c-0.2,0-0.4,0-0.6,0c0-0.2,0-0.4,0-0.6c-0.2,0-0.4,0-0.6,0c0-0.2,0-0.4,0-0.6c0.2,0,0.4,0,0.6,0c0-0.2,0-0.4,0-0.6
		C20.5,14.3,20.7,14.3,20.9,14.3z"/>
	<path d="M19,20.1c-0.2,0-0.4,0-0.6,0c0-0.2,0-0.4,0-0.6c0.2,0,0.4,0,0.6,0c0-0.2,0-0.4,0-0.6c0.2,0,0.4,0,0.6,0c0,0.2,0,0.4,0,0.6
		c0.2,0,0.4,0,0.6,0c0,0.2,0,0.4,0,0.6c-0.2,0-0.4,0-0.6,0c0,0.2,0,0.4,0,0.6c-0.2,0-0.4,0-0.6,0C19,20.5,19,20.3,19,20.1z"/>
	<path d="M7.4,3.3c-0.2,0-0.4,0-0.6,0c0-0.2,0-0.4,0-0.6c0.2,0,0.4,0,0.6,0C7.4,2.9,7.4,3.1,7.4,3.3z"/>
	<path d="M2.3,5.2c0.2,0,0.4,0,0.6,0c0,0.2,0,0.4,0,0.6c-0.2,0-0.4,0-0.6,0C2.3,5.7,2.3,5.5,2.3,5.2z"/>
	<path d="M15.8,20c0-0.2,0-0.4,0-0.6c0.2,0,0.4,0,0.6,0c0,0.2,0,0.4,0,0.6C16.2,20,16,20,15.8,20z"/>
	<path d="M20.9,21c0.2,0,0.4,0,0.6,0c0,0.2,0,0.4,0,0.6c-0.2,0-0.4,0-0.6,0C20.9,21.4,20.9,21.2,20.9,21z"/>
	<path d="M6.3,15.3c0,0-0.1,0.1-0.2,0.1c-0.2-0.3-0.4-0.6-0.5-0.8C5.8,14.8,6,15,6.3,15.3z"/>
</g>
</svg>
