<?xml version="1.0" encoding="utf-8"?>
<!-- Generator: Adobe Illustrator 25.2.1, SVG Export Plug-In . SVG Version: 6.00 Build 0)  -->
<svg version="1.1" id="Layer_8" xmlns="http://www.w3.org/2000/svg" xmlns:xlink="http://www.w3.org/1999/xlink" x="0px" y="0px"
	 viewBox="0 0 24 24" style="enable-background:new 0 0 24 24;" xml:space="preserve">
<g>
	<path d="M21.9,15.3c0,2,0,3.9,0,5.9c-0.2-0.1-0.4-0.2-0.6-0.3c-0.7-0.3-1.4-0.6-2.1-0.9C19,20,18.9,20,18.7,20c-2,0.3-4,0.6-6,0.9
		c-0.5,0.1-1,0.2-1.4,0.2c-1.2,0.1-2.3-0.2-3.2-1c-1.9-1.8-3.9-3.5-5.8-5.3c-0.2-0.2-0.2-0.4-0.1-0.6C2.3,14,2.6,13.9,2.8,14
		c0.1,0,0.2,0.1,0.2,0.1c1.7,1,3.3,2,5,3c0.4,0.2,0.8,0.4,1.3,0.4c1.3,0,2.6,0,3.9,0c0.2,0,0.4-0.1,0.4-0.3c0-0.2-0.1-0.3-0.4-0.3
		c-1.4,0-2.7,0-4.1,0c-0.5,0-0.8-0.3-0.8-0.8c0-0.4,0.3-0.7,0.7-0.7c1,0,2.1,0,3.1,0c0.2,0,0.4-0.1,0.6-0.2c0.5-0.5,1.1-1,1.9-1.2
		c1.7-0.5,3.1-0.1,4.3,1.2c0.2,0.2,0.3,0.3,0.5,0.2C20.3,15.3,21,15.3,21.9,15.3z"/>
	<path d="M11,3.1c-0.1,0.3-0.2,0.6-0.3,0.8c-0.4,1.3,0.2,2.5,1.4,3.1c1.1,0.5,1.8,1.6,1.7,2.8c-0.1,1-0.4,1.9-1.1,2.6
		c-1.6,1.7-4.1,2-5.9,0.5c-1.2-1-1.7-2.2-1.5-3.7c0.2-1.9,1.2-3.3,2.6-4.4c0.9-0.7,1.8-1.2,2.8-1.6C10.8,3.1,10.8,3.1,11,3.1z
		 M9.4,12.6c0.7,0,1.4-0.5,1.6-1.1c0.2-0.6,0.1-1-0.5-1.3c-0.1,0-0.1-0.1-0.2-0.1C10,9.8,9.7,9.6,9.4,9.4c-0.1,0-0.2-0.1-0.2-0.1
		C8.4,9.4,7.7,10.2,7.7,11C7.8,11.9,8.5,12.6,9.4,12.6z"/>
	<path d="M14,6.1c0.4-0.2,0.8-0.4,1.1-0.6c0.1-0.1,0.2-0.1,0.2-0.2c0.2-0.4,0.4-0.7,0.6-1.1c0.1,0.1,0.1,0.2,0.2,0.3
		c0.3,0.7,0.7,1.2,1.5,1.4c0.1,0,0.2,0.1,0.3,0.2c-0.4,0.2-0.7,0.4-1.1,0.6c-0.1,0.1-0.2,0.2-0.3,0.3C16.4,7.3,16.2,7.6,16,8
		c-0.2-0.3-0.3-0.5-0.4-0.8c-0.2-0.3-0.4-0.6-0.7-0.7C14.6,6.4,14.3,6.2,14,6.1z"/>
	<path d="M4.4,2.7c0.2,0.3,0.3,0.6,0.5,0.9C5,3.7,5.1,3.8,5.2,3.9C5.5,4,5.8,4.2,6.1,4.4C5.8,4.6,5.5,4.7,5.2,4.9
		C5.1,4.9,5,5,4.9,5.1C4.8,5.4,4.6,5.7,4.4,6C4.3,5.7,4.1,5.5,4,5.2C3.9,5,3.8,4.9,3.6,4.8C3.4,4.7,3.1,4.5,2.8,4.4
		C3.1,4.2,3.3,4.1,3.5,4c0.3-0.1,0.4-0.3,0.5-0.5C4.2,3.2,4.3,3,4.4,2.7z"/>
	<path d="M17.1,9.8c0.2,0.6,0.6,1.1,1.3,1.3c0,0,0,0,0,0.1c-0.2,0.1-0.3,0.2-0.5,0.3c-0.3,0.1-0.4,0.3-0.5,0.5
		c-0.1,0.2-0.2,0.3-0.3,0.5c-0.2-0.7-0.6-1.1-1.3-1.3C16.5,10.9,16.9,10.5,17.1,9.8z"/>
</g>
</svg>
