<?xml version="1.0" encoding="utf-8"?>
<!-- Generator: Adobe Illustrator 25.2.1, SVG Export Plug-In . SVG Version: 6.00 Build 0)  -->
<svg version="1.1" xmlns="http://www.w3.org/2000/svg" xmlns:xlink="http://www.w3.org/1999/xlink" x="0px" y="0px"
	 viewBox="0 0 24 24" style="enable-background:new 0 0 24 24;" xml:space="preserve">
<g>
	<g id="Layer_1-2_2_">
		<g>
			<path d="M22.5,17.2c-0.1,0-0.2,0-0.3,0c-2,0-4,0-6,0c-0.2,0-0.3-0.1-0.4-0.2c-3-3.8-6-7.5-9-11.3c0,0-0.1-0.1-0.1-0.2l4.2-3.3
				c0.4,0.3,0.7,0.8,1,1.2c0.4,0.7,0.7,1.4,1,2.1c0.2,0.4,0.4,0.7,0.7,1C14,7,14.4,7,14.9,6.7c0.2-0.1,0.3-0.3,0.5-0.4
				c0.1-0.1,0.3-0.3,0.4-0.4c0.2,0.2,0.3,0.3,0.5,0.5c0.4,0.4,0.8,0.8,1.2,1.2c0.1,0,0.1,0.1,0.1,0.2c0.1,0.7,0.3,1.4,0.4,2.1h-4.1
				V11h0.2c1.3,0,2.5,0,3.8,0c0.2,0,0.3,0.1,0.3,0.3c0,0.3,0.1,0.6,0.2,0.9h-3.3v1.2h0.2c1.3,0,2.7,0,4,0c1.5,0,2.7,0.9,3.1,2.3
				c0,0.1,0.1,0.3,0.1,0.4V17.2z"/>
			<path d="M22.5,20.9c-0.1,0-0.2,0-0.3,0c-2.6,0-5.2,0-7.8,0c-0.1,0-0.2,0-0.3-0.1C10.7,16.5,7.3,12.2,3.9,8c0,0-0.1-0.1-0.1-0.1
				l1.9-1.5c0,0.1,0.1,0.1,0.1,0.2c3.1,3.9,6.3,7.8,9.4,11.7c0.1,0.1,0.3,0.2,0.4,0.2c2.2,0,4.4,0,6.6,0c0.1,0,0.2,0,0.3,0
				L22.5,20.9z"/>
			<path d="M1.5,14.7c0,0,0.1,0,0.1,0c1.5,0,3.1,0,4.6,0c0,0,0.1,0,0.1,0V16H6.2c-1.5,0-2.9,0-4.4,0c-0.1,0-0.2,0-0.2,0L1.5,14.7z"
				/>
			<path d="M4,17.2h4.9v1.2H4V17.2z"/>
			<path d="M6.4,20.9v-1.2h4.9v1.2L6.4,20.9z"/>
		</g>
	</g>
</g>
</svg>
