<?xml version="1.0" encoding="utf-8"?>
<!-- Generator: Adobe Illustrator 25.2.1, SVG Export Plug-In . SVG Version: 6.00 Build 0)  -->
<svg version="1.1" xmlns="http://www.w3.org/2000/svg" xmlns:xlink="http://www.w3.org/1999/xlink" x="0px" y="0px"
	 viewBox="0 0 24 24" style="enable-background:new 0 0 24 24;" xml:space="preserve">

<g>
	<g class="l0">
		<path d="M22.2,3.9c-0.1,0.4-0.2,0.7-0.5,0.9c-0.3,0.3-0.8,0.4-1.2,0.3c-0.1,0-0.2,0-0.2,0.1c-0.2,0.4-0.3,0.8-0.5,1.1
			c-0.1,0.2-0.2,0.4-0.4,0.5C19.2,7,19.1,7.1,19,7.1l1.1,1.1c-0.3,0.3-0.6,0.6-0.9,0.8l-1.1-1.1L17,9c0.2,0.1,0.4,0.3,0.7,0.4
			c0.1,0.1,0.1,0.1,0.1,0.2c0,2-0.2,3.9-0.9,5.8c0,0.1,0,0.2,0.1,0.3c1.3,1.3,2.6,2.5,3.8,3.8c0.1,0.1,0.1,0.2,0.1,0.3
			c-0.1,0.4-0.1,0.8-0.1,1.2c-0.4,0-0.9,0.1-1.3,0.1c-0.1,0-0.2-0.1-0.2-0.1c-1.1-1.1-2.1-2.1-3.2-3.2c0,0-0.1-0.1-0.2-0.2
			c-0.9,1.5-1.9,2.9-3.3,4c0-0.1,0-0.1,0-0.2c0-1.3,0-2.7,0-4c0-0.1,0-0.2,0.1-0.3c1.1-1.6,1.7-3.4,1.9-5.3c0-0.2,0.1-0.5,0.1-0.7
			c-0.4-0.1-0.7-0.2-1.1-0.3c-0.4-0.1-0.7-0.2-1.1-0.2V7.6c0.5,0.1,1,0.2,1.6,0.3c0.2,0,0.4,0.1,0.6,0.2c0.1,0,0.2,0,0.2,0
			c0.5-0.5,1.1-1.1,1.6-1.6c-0.4-0.4-0.8-0.8-1.1-1.1l0.9-0.9l1,1.1c0,0,0.1-0.1,0.1-0.1c0.2-0.3,0.5-0.5,0.8-0.6
			c0.4-0.1,0.8-0.3,1.2-0.5c-0.1-0.4-0.1-0.8,0.1-1.2c0.3-0.5,0.8-0.8,1.4-0.7c0.5,0,1,0.5,1.2,1c0,0.1,0,0.1,0.1,0.2V3.9z"/>
		<path d="M3.2,19.7l1.5-1.5v3c-0.1,0.1-0.2,0.1-0.3,0.1c-0.3,0-0.7-0.1-1-0.1c-0.1,0-0.2-0.1-0.2-0.2c0-0.3-0.1-0.7-0.1-1
			C3.1,19.9,3.2,19.8,3.2,19.7z"/>
		<path d="M11.4,17.5v4.2c0,0,0,0,0,0c-0.8-0.6-1.5-1.3-2.1-2.1V9.7H6.2c0-0.1,0-0.2,0.1-0.2C6.5,9.3,6.8,9.1,7,9l-1-1.1L4.8,9.1
			L3.9,8.2c0.3-0.3,0.7-0.7,1.1-1c0,0-0.1-0.1-0.1-0.1C4.5,6.9,4.3,6.6,4.2,6.2c-0.1-0.3-0.3-0.7-0.4-1c0-0.1-0.1-0.1-0.2-0.1
			C2.7,5.3,2,4.9,1.8,4c0,0,0-0.1,0-0.1V3.5C1.8,3.2,2,2.8,2.3,2.6C2.8,2.2,3.5,2.1,4,2.5C4.5,2.8,4.8,3.4,4.6,4c0,0,0,0.1,0,0.2
			C5,4.4,5.5,4.6,5.9,4.8C6.2,4.9,6.3,5,6.5,5.2c0.1,0.1,0.1,0.2,0.2,0.2l1.1-1.1l0.9,0.9L7.4,6.4C7.7,6.6,7.9,6.8,8.1,7
			C8.4,7.3,8.7,7.6,9,7.9C9.1,8,9.2,8,9.3,8c0.7-0.2,1.4-0.3,2.1-0.5v3.1c-0.3,0.1-0.7,0.1-1.1,0.2C10,11,9.7,11.1,9.4,11.2
			c-0.1,0-0.1,0.1-0.1,0.2c0.2,2.1,0.8,4.1,2,5.9C11.4,17.4,11.4,17.4,11.4,17.5z"/>
		<path d="M10.6,12.1c0.9-0.3,1.9-0.3,2.8,0c-0.2,1.4-0.6,2.8-1.4,4.1C11.2,14.8,10.8,13.5,10.6,12.1z"/>
	</g>
	<path class="l1" d="M5.7,10.7h2.5v6.9H5.7V10.7 M5.7,22v-2.5h2.5V22H5.7z"/>
</g>
</svg>
