<?xml version="1.0" encoding="utf-8"?>
<!-- Generator: Adobe Illustrator 25.2.1, SVG Export Plug-In . SVG Version: 6.00 Build 0)  -->
<svg version="1.1" xmlns="http://www.w3.org/2000/svg" xmlns:xlink="http://www.w3.org/1999/xlink" x="0px" y="0px"
	 viewBox="0 0 24 24" style="enable-background:new 0 0 24 24;" xml:space="preserve">
<g>
	<g class="l0">
		<path d="M22.2,3.5v0.4c-0.1,0.4-0.2,0.7-0.5,0.9c-0.3,0.3-0.8,0.4-1.2,0.3c-0.1,0-0.2,0-0.2,0.1C20,5.6,19.9,6,19.7,6.4
			c-0.1,0.2-0.2,0.4-0.4,0.5C19.2,7,19.1,7,19,7.1l1.1,1.1c-0.3,0.3-0.6,0.6-0.8,0.9l-1.1-1.1L17,9c0.2,0.1,0.4,0.3,0.7,0.4
			c0.1,0.1,0.1,0.1,0.1,0.2c0,2-0.2,3.9-0.9,5.8c0,0.1,0,0.2,0.1,0.3c1.3,1.3,2.6,2.5,3.8,3.8c0.1,0.1,0.1,0.2,0.1,0.3
			c-0.1,0.4-0.1,0.8-0.1,1.2c-0.4,0-0.9,0.1-1.3,0.1c-0.1,0-0.2,0-0.2-0.1c-1.1-1-2.1-2.1-3.2-3.2c0,0-0.1-0.1-0.2-0.2
			c-0.9,1.5-1.9,2.9-3.3,4c0-0.1,0-0.1,0-0.2v-0.3c0.5-0.2,0.8-0.6,1.1-1c0.3-0.4,0.4-0.9,0.3-1.4c0.4-0.3,0.7-0.8,0.8-1.3l0-0.6
			l-0.1-0.4c0-0.1,0-0.1-0.1-0.2c-0.2-0.5-0.5-0.9-0.9-1.2c0.4-1,0.7-2,0.8-3.1c0-0.2,0.1-0.5,0.1-0.7c-0.4-0.1-0.7-0.2-1.1-0.3
			c-0.3-0.1-0.7-0.2-1.1-0.2V7.6c0.5,0.1,1,0.2,1.6,0.3c0.2,0,0.4,0.1,0.6,0.2c0.1,0,0.1,0,0.2,0c0.5-0.5,1.1-1.1,1.6-1.6
			c-0.4-0.4-0.8-0.8-1.1-1.1l0.9-0.9l1,1.1c0,0,0.1-0.1,0.1-0.1c0.2-0.3,0.5-0.5,0.8-0.6c0.4-0.2,0.8-0.3,1.2-0.5
			c-0.1-0.4-0.1-0.8,0.1-1.2c0.3-0.5,0.8-0.8,1.4-0.7c0.5,0,1,0.5,1.2,1C22.2,3.3,22.2,3.4,22.2,3.5z"/>
		<path d="M5.2,20.8l-0.4,0.4c-0.1,0.1-0.2,0.1-0.3,0.1c-0.3,0-0.7-0.1-1-0.1c-0.1,0-0.2-0.1-0.2-0.2c0-0.3-0.1-0.7-0.1-1
			c0-0.1,0-0.3,0.1-0.4l0.2-0.2c0,0,0.1,0,0.1,0C3.9,20.1,4.5,20.6,5.2,20.8z"/>
		<path d="M11.4,10.6c-0.3,0.1-0.7,0.1-1.1,0.2C10,11,9.7,11.1,9.4,11.2c-0.1,0-0.1,0.1-0.1,0.2c0,0,0,0.1,0,0.2
			c-0.3,0-0.6,0-0.8,0.1c-0.6-0.4-1.6-0.4-2.2-0.1c-0.1-0.6-0.1-1.3-0.1-1.9c0-0.1,0-0.2,0.1-0.2C6.5,9.3,6.8,9.1,7,9l-1-1.1
			L4.8,9.1L3.9,8.2c0.3-0.3,0.7-0.7,1.1-1c0,0-0.1-0.1-0.1-0.1C4.5,6.9,4.3,6.6,4.2,6.2c-0.1-0.3-0.3-0.7-0.4-1
			c0-0.1-0.1-0.1-0.2-0.1C2.7,5.3,2,4.9,1.8,4c0,0,0-0.1,0-0.1V3.5C1.8,3.2,2,2.8,2.3,2.6C2.8,2.2,3.5,2.1,4,2.5
			C4.5,2.8,4.8,3.4,4.6,4c0,0,0,0.1,0,0.2C5,4.4,5.5,4.6,5.9,4.8C6.2,4.9,6.3,5,6.5,5.2c0.1,0.1,0.1,0.2,0.2,0.2l1.1-1.1l0.9,0.9
			L7.4,6.4C7.7,6.6,7.9,6.8,8.1,7C8.4,7.3,8.7,7.6,9,7.9C9.1,8,9.2,8,9.3,8c0.7-0.2,1.4-0.3,2.1-0.5V10.6z"/>
		<path d="M13.4,12.1c-0.1,0.4-0.2,0.9-0.3,1.3c0-0.1-0.1-0.1-0.2-0.2c-0.3-0.4-0.8-0.7-1.3-0.8L11,12.1c-0.1,0-0.1-0.1-0.2-0.1
			C11.7,11.8,12.6,11.8,13.4,12.1z"/>
	</g>
	<g class="l1">
		<path d="M13.9,16.8c0,0.1,0,0.2,0,0.3c0,0,0,0,0,0.1c-0.1,0.7-0.8,1.1-1.5,1c-0.5-0.1-0.8-0.4-1-0.8c-0.1-0.2-0.2-0.2-0.3-0.2
			c-0.1,0-0.2,0.2-0.1,0.3c0.1,0.1,0.1,0.3,0.2,0.4c0,0,0,0.1,0,0.1c-0.5,0.9-1.6,1.4-2.6,1.2c-0.5-0.1-0.9-0.3-1.2-0.5
			c-0.1-0.1-0.2-0.1-0.3,0C7,18.9,7,19,7.1,19.1c0.1,0.1,0.2,0.1,0.2,0.2c0,0,0,0.1-0.1,0.1c-0.4,0.5-0.9,0.7-1.6,0.6
			c-0.7-0.1-1.3-0.8-1.4-1.5c-0.1-1,0.7-1.9,1.7-1.9c0.4,0,0.8,0,1.2,0c0.4,0,0.6-0.3,0.6-0.6c0-0.2,0.1-0.3,0.3-0.3
			c0.2,0,0.4,0,0.6,0c0.1,0,0.2-0.1,0.2-0.2c0-0.1-0.1-0.2-0.2-0.2c-0.2,0-0.4,0-0.7,0c-0.3,0-0.6,0.3-0.6,0.6
			c0,0.2-0.1,0.3-0.3,0.3c-0.4,0-0.8,0-1.2,0c-1,0-1.8,0.6-2,1.6c-0.1,0.2-0.1,0.5-0.1,0.8c-0.7,0-1.4-0.5-1.6-1.1
			c0.1,0,0.1,0.1,0.2,0.1c0.1,0,0.2,0,0.3-0.1c0.1-0.1,0-0.2,0-0.3c0,0-0.1-0.1-0.1-0.1c-0.3-0.2-0.5-0.4-0.6-0.7
			C2,16.3,2,16.2,2,16.1c0-0.1,0-0.2,0-0.3c0,0,0,0,0,0c0.1-0.6,0.5-0.9,1.1-1.1c0.1,0,0.2-0.1,0.2-0.2c0-0.1-0.1-0.2-0.3-0.2
			c-0.1,0-0.2,0-0.3,0.1C2.7,14.1,2.8,14,3,13.8c0.4-0.4,0.9-0.5,1.5-0.3c0.1,0.1,0.3,0,0.3-0.1c0-0.1,0-0.2-0.1-0.3
			c-0.1,0-0.1-0.1-0.2-0.1c0,0,0.1-0.1,0.1-0.1c0.5-0.6,1.4-0.5,1.9,0.1c0.1,0.1,0.2,0.2,0.3,0.1c0.1-0.1,0.1-0.2,0-0.3
			c-0.1-0.1-0.1-0.2-0.2-0.3c0.4-0.3,1.1-0.3,1.4-0.1c0,0,0,0-0.1,0c-0.1,0.1-0.1,0.2-0.1,0.3c0.1,0.1,0.2,0.1,0.3,0.1
			c0,0,0.1,0,0.1,0c0.4-0.2,0.9-0.3,1.4-0.3c0.7,0.1,1.3,0.5,1.6,1.2c0.1,0.1,0.2,0.2,0.3,0.1c0.1-0.1,0.1-0.2,0.1-0.3
			c0-0.1-0.1-0.2-0.1-0.3c0.3,0.1,0.6,0.3,0.9,0.5c0.6,0.6,0.7,1.4,0.5,2.2c-0.1,0.2,0,0.3,0.1,0.3c0.1,0,0.2,0,0.3-0.2
			c0-0.1,0.1-0.2,0.1-0.3c0.3,0.2,0.5,0.4,0.6,0.7C13.8,16.7,13.9,16.8,13.9,16.8z"/>
		<path d="M13,18.7c0.1,0.4,0.1,0.7-0.1,1c-0.3,0.5-0.7,0.7-1.2,0.9c-0.7,0.2-1.4,0.1-2-0.4c-0.1-0.1-0.2-0.2-0.4-0.4
			c1-0.1,1.8-0.6,2.3-1.4C12,18.7,12.4,18.8,13,18.7z"/>
		<path d="M10.3,21.4c0,0.1,0,0.2,0,0.4c0,0.1,0,0.2-0.1,0.3c-0.1,0-0.2,0-0.3-0.1c-0.4-0.4-0.7-0.8-1.1-1.3
			c-0.2-0.2-0.4-0.3-0.6-0.3c-0.3,0-0.5-0.2-0.6-0.5c0-0.1,0-0.1,0-0.2c0.1-0.2,0.3-0.2,0.5-0.1c0.2,0.1,0.4,0.1,0.6,0.2
			c0,0,0.1,0,0.1,0.1c0.3,0.6,0.8,0.9,1.4,1.1c0.1,0,0.1,0.1,0.1,0.1C10.3,21.2,10.3,21.3,10.3,21.4z"/>
	</g>
</g>
</svg>
