<?xml version="1.0" encoding="utf-8"?>
<!-- Generator: Adobe Illustrator 25.2.1, SVG Export Plug-In . SVG Version: 6.00 Build 0)  -->
<svg version="1.1" xmlns="http://www.w3.org/2000/svg" xmlns:xlink="http://www.w3.org/1999/xlink" x="0px" y="0px"
	 viewBox="0 0 24 24" style="enable-background:new 0 0 24 24;" xml:space="preserve">

<g>
	<path d="M10.8,22c-0.4,0-0.7-0.1-1.1-0.2c-2.6-0.5-4.7-1.9-6.2-4.1c-1.1-1.7-1.7-3.6-1.6-5.6c0.1-2.6,1.2-4.8,3.2-6.6
		c1.4-1.3,3.1-2,4.9-2.3c1.7-0.3,3.4,0,5,0.7c0,0,0.1,0,0.1,0c-0.2,0.4-0.3,0.8-0.3,1.3c0,0.3,0,0.6,0,1c0,0.2,0,0.4-0.2,0.5
		c0,0-0.1,0.1-0.1,0.2c-3.2-1.8-6.8-0.5-8.5,2c-1.7,2.6-1.4,6,0.8,8.2c2.2,2.2,5.6,2.5,8.2,0.8c2.6-1.7,3.8-5.3,2-8.5
		c0.1-0.1,0.2-0.2,0.3-0.3c0.1,0,0.1-0.1,0.2-0.1c0.4,0,0.8,0,1.2,0c0.4,0,0.8,0,1.2-0.3c0.2,0.6,0.4,1.1,0.5,1.6
		c1.2,5-1.8,10-6.8,11.3c-0.5,0.1-1,0.2-1.6,0.3c0,0-0.1,0-0.1,0H10.8z"/>
	<path d="M22,5.1c-0.1,0.2-0.3,0.3-0.4,0.5c-0.7,0.7-1.4,1.3-2,2c-0.2,0.2-0.4,0.3-0.7,0.3c-0.6,0-1.2,0-1.8,0
		c-0.1,0-0.2,0-0.3,0.1c-1.6,1.6-3.2,3.2-4.9,4.9c-0.3,0.3-0.7,0.4-0.9,0.1s-0.2-0.6,0.1-0.9c1.6-1.6,3.2-3.2,4.8-4.8
		c0.1-0.1,0.2-0.2,0.1-0.4c0-0.6,0-1.2,0-1.8c0-0.2,0.1-0.4,0.2-0.5c0.7-0.8,1.5-1.5,2.2-2.3C18.7,2,19,1.9,19.3,2
		c0.3,0.1,0.4,0.3,0.4,0.6c0,0.6,0,1.1,0,1.7h0.7c0.3,0,0.6,0,0.9,0c0.4,0,0.6,0.1,0.7,0.5L22,5.1z"/>
	<path d="M13.7,7.8c0,0-0.1,0.1-0.1,0.1c-0.7,0.7-1.4,1.4-2.1,2.1c-0.1,0.1-0.2,0.1-0.3,0.1c-1.1,0.1-2,1.1-2,2.3
		c0,1.2,0.8,2.2,1.9,2.3c1.4,0.2,2.5-0.6,2.7-2c0-0.1,0-0.1,0.1-0.2c0.8-0.8,1.5-1.5,2.3-2.3c0,0,0,0,0,0c0.9,1.6,0.8,4.4-1.2,6.2
		c-1.9,1.7-5,1.8-6.9,0.1c-2.1-1.8-2.4-4.8-0.9-7C8.7,7.3,11.6,6.8,13.7,7.8z"/>
</g>

</svg>
